<?xml version="1.0" encoding="UTF-8" standalone="no"?>
<svg
   width="32"
   height="32"
   version="1.1"
   id="svg12"
   sodipodi:docname="start.svg"
   inkscape:version="1.1.1 (3bf5ae0d25, 2021-09-20, custom)"
   xmlns:inkscape="http://www.inkscape.org/namespaces/inkscape"
   xmlns:sodipodi="http://sodipodi.sourceforge.net/DTD/sodipodi-0.dtd"
   xmlns:xlink="http://www.w3.org/1999/xlink"
   xmlns="http://www.w3.org/2000/svg"
   xmlns:svg="http://www.w3.org/2000/svg"
   xmlns:rdf="http://www.w3.org/1999/02/22-rdf-syntax-ns#"
   xmlns:cc="http://creativecommons.org/ns#"
   xmlns:dc="http://purl.org/dc/elements/1.1/">
  <metadata
     id="metadata16">
    <rdf:RDF>
      <cc:Work
         rdf:about="">
        <dc:format>image/svg+xml</dc:format>
        <dc:type
           rdf:resource="http://purl.org/dc/dcmitype/StillImage" />
        <dc:title />
      </cc:Work>
    </rdf:RDF>
  </metadata>
  <sodipodi:namedview
     pagecolor="#c8c8c8"
     bordercolor="#666666"
     borderopacity="1"
     objecttolerance="10"
     gridtolerance="10"
     guidetolerance="10"
     inkscape:pageopacity="0"
     inkscape:pageshadow="2"
     inkscape:window-width="1920"
     inkscape:window-height="1005"
     id="namedview14"
     showgrid="true"
     inkscape:zoom="8.0000001"
     inkscape:cx="16.0625"
     inkscape:cy="8.8749999"
     inkscape:window-x="0"
     inkscape:window-y="0"
     inkscape:window-maximized="1"
     inkscape:current-layer="svg12"
     inkscape:snap-bbox="true"
     inkscape:bbox-nodes="true"
     inkscape:snap-bbox-edge-midpoints="true"
     inkscape:snap-nodes="false"
     inkscape:document-rotation="0"
     inkscape:object-paths="true"
     inkscape:snap-intersection-paths="true"
     inkscape:snap-smooth-nodes="true"
     inkscape:snap-midpoints="true"
     inkscape:pagecheckerboard="0">
    <inkscape:grid
       type="xygrid"
       id="grid4539" />
  </sodipodi:namedview>
  <defs
     id="defs7386">
    <style
       id="current-color-scheme"
       type="text/css">
   .ColorScheme-Text { color:#dedede; } .ColorScheme-Highlight { color:#5294e2; } .ColorScheme-ButtonBackground { color:#dedede; }
  </style>
    <linearGradient
       id="linearGradient8660"
       x1="-7.6728001"
       x2="-5.027"
       y1="-29.104"
       y2="-27.252001"
       gradientTransform="matrix(3.3620413,0,0,3.3620413,56.979969,79.985673)"
       gradientUnits="userSpaceOnUse">
      <stop
         stop-color="#00bffb"
         offset="0"
         id="stop17" />
      <stop
         stop-color="#01a0f3"
         offset="1"
         id="stop19" />
    </linearGradient>
    <linearGradient
       id="linearGradient8668"
       x1="-4.7624002"
       x2="-1.852"
       y1="-27.252001"
       y2="-30.122999"
       gradientTransform="matrix(3.5258028,0,0,3.3620413,57.757906,79.985673)"
       gradientUnits="userSpaceOnUse">
      <stop
         stop-color="#11c2f4"
         offset="0"
         id="stop12" />
      <stop
         stop-color="#2dc5f4"
         offset="1"
         id="stop14" />
    </linearGradient>
    <linearGradient
       id="linearGradient8676"
       x1="-7.6728001"
       x2="-5.027"
       y1="-26.722"
       y2="-24.493"
       gradientTransform="matrix(3.3620413,0,0,3.3620413,56.979969,79.985673)"
       gradientUnits="userSpaceOnUse">
      <stop
         stop-color="#0954a8"
         offset="0"
         id="stop7" />
      <stop
         stop-color="#0954a8"
         offset="1"
         id="stop9" />
    </linearGradient>
    <linearGradient
       id="linearGradient8684"
       x1="-4.4977999"
       x2="-1.852"
       y1="-26.722"
       y2="-24.111"
       gradientTransform="matrix(3.5258028,0,0,3.3620413,57.757906,79.985673)"
       gradientUnits="userSpaceOnUse">
      <stop
         stop-color="#339ed9"
         offset="0"
         id="stop2" />
      <stop
         stop-color="#2386c9"
         offset="1"
         id="stop4" />
    </linearGradient>
    <linearGradient
       inkscape:collect="always"
       xlink:href="#linearGradient69919"
       id="linearGradient1098"
       gradientUnits="userSpaceOnUse"
       x1="3.5297737e-05"
       y1="1235.1935"
       x2="931.66602"
       y2="1440"
       gradientTransform="matrix(0.26458333,0,0,0.52294539,0,150.56374)" />
    <linearGradient
       inkscape:collect="always"
       id="linearGradient69919">
      <stop
         style="stop-color:#feb36b;stop-opacity:1"
         offset="0"
         id="stop69915" />
      <stop
         style="stop-color:#d66405;stop-opacity:1"
         offset="1"
         id="stop69917" />
    </linearGradient>
    <linearGradient
       inkscape:collect="always"
       xlink:href="#linearGradient89663"
       id="linearGradient1096"
       gradientUnits="userSpaceOnUse"
       x1="1916.9023"
       y1="1440"
       x2="2560"
       y2="1180.5859"
       gradientTransform="matrix(0.01640177,0,0,0.0411311,-11.801183,-34.228788)" />
    <linearGradient
       inkscape:collect="always"
       id="linearGradient89663">
      <stop
         style="stop-color:#0dbbe5;stop-opacity:1"
         offset="0"
         id="stop89659" />
      <stop
         style="stop-color:#4100b8;stop-opacity:1"
         offset="1"
         id="stop89661" />
    </linearGradient>
    <linearGradient
       inkscape:collect="always"
       xlink:href="#linearGradient103557"
       id="linearGradient1094"
       gradientUnits="userSpaceOnUse"
       x1="639.51562"
       y1="1251.1191"
       x2="1164.2266"
       y2="1440"
       gradientTransform="matrix(0.26458333,0,0,0.52294539,0,150.56374)" />
    <linearGradient
       inkscape:collect="always"
       id="linearGradient103557">
      <stop
         style="stop-color:#8505e2;stop-opacity:1"
         offset="0"
         id="stop103553" />
      <stop
         style="stop-color:#10afe2;stop-opacity:1"
         offset="1"
         id="stop103555" />
    </linearGradient>
    <linearGradient
       inkscape:collect="always"
       xlink:href="#linearGradient69919"
       id="linearGradient1019"
       gradientUnits="userSpaceOnUse"
       gradientTransform="translate(0,1806.1328)"
       x1="3.5297737e-05"
       y1="1235.1935"
       x2="931.66602"
       y2="1440" />
    <linearGradient
       inkscape:collect="always"
       xlink:href="#linearGradient89663"
       id="linearGradient1021"
       gradientUnits="userSpaceOnUse"
       gradientTransform="translate(-902.41402,1710.1172)"
       x1="1916.9023"
       y1="1440"
       x2="2560"
       y2="1180.5859" />
    <linearGradient
       inkscape:collect="always"
       xlink:href="#linearGradient103557"
       id="linearGradient1023"
       gradientUnits="userSpaceOnUse"
       gradientTransform="translate(0,1806.1328)"
       x1="639.51562"
       y1="1251.1191"
       x2="1164.2266"
       y2="1440" />
    <linearGradient
       inkscape:collect="always"
       xlink:href="#linearGradient69919"
       id="linearGradient32485"
       gradientUnits="userSpaceOnUse"
       gradientTransform="matrix(0.26458333,0,0,0.52294539,0,150.56374)"
       x1="3.5297737e-05"
       y1="1235.1935"
       x2="931.66602"
       y2="1440" />
    <linearGradient
       inkscape:collect="always"
       xlink:href="#linearGradient89663"
       id="linearGradient32487"
       gradientUnits="userSpaceOnUse"
       gradientTransform="matrix(0.01640177,0,0,0.0411311,-11.801183,-34.228788)"
       x1="1916.9023"
       y1="1440"
       x2="2560"
       y2="1180.5859" />
    <linearGradient
       inkscape:collect="always"
       xlink:href="#linearGradient103557"
       id="linearGradient32489"
       gradientUnits="userSpaceOnUse"
       gradientTransform="matrix(0.26458333,0,0,0.52294539,0,150.56374)"
       x1="639.51562"
       y1="1251.1191"
       x2="1164.2266"
       y2="1440" />
    <linearGradient
       inkscape:collect="always"
       xlink:href="#linearGradient69919"
       id="linearGradient32753"
       gradientUnits="userSpaceOnUse"
       gradientTransform="matrix(0.26458333,0,0,0.52294539,0,150.56374)"
       x1="3.5297737e-05"
       y1="1235.1935"
       x2="931.66602"
       y2="1440" />
    <linearGradient
       inkscape:collect="always"
       xlink:href="#linearGradient89663"
       id="linearGradient32755"
       gradientUnits="userSpaceOnUse"
       gradientTransform="matrix(0.01640177,0,0,0.0411311,-11.801183,-34.228788)"
       x1="1916.9023"
       y1="1440"
       x2="2560"
       y2="1180.5859" />
    <linearGradient
       inkscape:collect="always"
       xlink:href="#linearGradient103557"
       id="linearGradient32757"
       gradientUnits="userSpaceOnUse"
       gradientTransform="matrix(0.26458333,0,0,0.52294539,0,150.56374)"
       x1="639.51562"
       y1="1251.1191"
       x2="1164.2266"
       y2="1440" />
  </defs>
  <g
     id="start-here-kde">
    <rect
       style="color:#bebebe;display:inline;overflow:visible;visibility:visible;fill:none;stroke:none;stroke-width:1;marker:none"
       id="rect6336-6"
       width="32"
       height="32"
       x="0"
       y="0" />
    <g
       id="g2421"
       transform="matrix(0.06199093,0,0,0.08717653,3.0000014,-49.395947)">
      <path
         id="rect1084"
         style="fill:#fbfbfb;fill-opacity:1;stroke:none;stroke-width:0.161227;stroke-linecap:round;paint-order:stroke fill markers"
         d="M 21.349609 11.001953 C 21.250581 10.9966 21.150948 11.00057 21.048828 11.011719 C 20.946706 11.022855 20.843305 11.042015 20.738281 11.068359 C 20.633257 11.094706 20.525707 11.127739 20.417969 11.167969 C 20.31023 11.208199 20.202059 11.255779 20.091797 11.308594 C 19.981534 11.361399 19.868456 11.420307 19.755859 11.484375 C 19.643263 11.548448 19.530758 11.617379 19.416016 11.691406 C 19.301274 11.765426 19.185058 11.843115 19.068359 11.925781 C 18.834964 12.091098 18.597505 12.272834 18.357422 12.464844 C 18.11734 12.656861 17.87416 12.860146 17.628906 13.068359 C 17.1384 13.484783 16.638814 13.923549 16.136719 14.341797 C 15.885672 14.550921 15.634481 14.755373 15.382812 14.949219 C 15.256978 15.04614 15.131569 15.139335 15.005859 15.230469 C 14.880153 15.321604 14.754297 15.410109 14.628906 15.494141 C 14.503518 15.578174 14.378789 15.658752 14.253906 15.734375 C 14.129025 15.809994 14.005043 15.879414 13.880859 15.945312 C 13.756673 16.011206 13.631111 16.072091 13.507812 16.126953 C 13.384513 16.181814 13.262849 16.230922 13.140625 16.273438 C 13.018402 16.315948 12.896349 16.352005 12.775391 16.380859 C 12.654433 16.409719 12.533566 16.431424 12.414062 16.445312 C 12.294561 16.459195 12.176452 16.465279 12.058594 16.462891 C 11.940734 16.460511 11.823058 16.449672 11.707031 16.429688 C 11.474979 16.389712 11.258421 16.361511 11.054688 16.34375 C 10.850951 16.325989 10.661055 16.319818 10.480469 16.326172 C 10.390175 16.329336 10.302271 16.334199 10.216797 16.34375 C 10.131322 16.353307 10.048098 16.366619 9.9667969 16.382812 C 9.8854964 16.398998 9.8062888 16.418349 9.7285156 16.441406 C 9.6507424 16.464475 9.5748912 16.491316 9.5 16.521484 C 9.4251088 16.55166 9.3519515 16.585532 9.2792969 16.623047 C 9.2066416 16.660562 9.1335646 16.70295 9.0625 16.748047 C 8.9914356 16.793151 8.9216817 16.841602 8.8515625 16.894531 C 8.7814433 16.947458 8.7104447 17.003462 8.640625 17.064453 C 8.5708046 17.125441 8.5018075 17.190475 8.4316406 17.259766 C 8.3614744 17.32906 8.2918612 17.402637 8.2207031 17.480469 C 8.1495444 17.5583 8.0767029 17.641902 8.0039062 17.728516 C 7.9311098 17.815136 7.8582827 17.904363 7.7832031 18 C 7.633043 18.191274 7.4776214 18.402068 7.3144531 18.630859 C 7.1512851 18.859646 6.9801701 19.106778 6.7988281 19.375 C 6.4361452 19.91144 6.0308232 20.528732 5.5644531 21.234375 C 5.331268 21.587193 5.0832612 21.963338 4.8164062 22.361328 C 4.5495517 22.759319 4.2646746 23.179925 3.9589844 23.625 C 3.6604543 24.059646 3.3404349 24.518643 3 25 C 4.1751885 23.720332 7.7785462 20.098955 11.039062 20.001953 C 11.144241 19.998806 11.249146 19.99953 11.353516 20.003906 C 12.100441 20.035417 12.821984 20.277758 13.488281 20.765625 C 15.349844 21.96341 17.032511 23.406601 18.548828 25 L 19.638672 25 C 21.371302 23.974478 23.769934 22.069955 26.640625 18.789062 C 26.171635 17.90439 25.703653 17.020017 25.28125 16.232422 C 25.010526 15.727638 24.752118 15.248644 24.505859 14.800781 C 24.259602 14.35292 24.026184 13.936147 23.808594 13.558594 C 23.699796 13.369815 23.594981 13.190174 23.494141 13.021484 C 23.393299 12.852794 23.295485 12.695759 23.203125 12.548828 C 23.110765 12.401899 23.022807 12.266077 22.939453 12.142578 C 22.856098 12.019085 22.776946 11.906983 22.703125 11.808594 C 22.662762 11.754795 22.623415 11.704194 22.582031 11.65625 C 22.540648 11.608304 22.497462 11.563744 22.455078 11.521484 C 22.412699 11.479224 22.369528 11.439083 22.326172 11.402344 C 22.282817 11.365603 22.239619 11.332164 22.195312 11.300781 C 22.106699 11.238019 22.016103 11.184895 21.923828 11.142578 C 21.831553 11.100259 21.738327 11.068105 21.642578 11.044922 C 21.546833 11.021736 21.448637 11.007314 21.349609 11.001953 z M 28.931641 23.066406 C 29.258203 23.665021 29.587953 24.262957 29.917969 24.851562 C 29.587953 24.262958 29.258203 23.665021 28.931641 23.066406 z "
         transform="matrix(16.131392,0,0,11.470977,-48.394199,566.61979)" />
      <path
         id="path1088"
         style="opacity:1;fill:url(#linearGradient1098);fill-opacity:1;stroke:none;stroke-width:0.371971px;stroke-linecap:butt;stroke-linejoin:miter;stroke-opacity:1"
         d="M 129.69182,796.06225 C 77.095137,797.17496 18.957426,838.71518 0,853.39422 h 218.16808 c -14.67845,-21.86013 -30.74215,-39.07652 -48.96291,-48.56344 -10.74831,-5.59631 -22.3934,-8.38668 -34.44234,-8.74814 -1.68363,-0.0502 -3.37434,-0.0564 -5.07101,-0.0203 z" />
      <path
         id="path1090"
         style="opacity:1;fill:url(#linearGradient1096);fill-opacity:1;stroke:none;stroke-width:0.0259735px;stroke-linecap:butt;stroke-linejoin:miter;stroke-opacity:1"
         d="M 26.640625 18.789062 C 23.769934 22.069955 21.371302 23.974478 19.638672 25 L 29.994141 25 C 29.996385 25 29.998593 24.997892 30 24.994141 C 29.99972 24.993642 30.00028 24.992686 30 24.992188 C 29.973042 24.944283 29.944919 24.899629 29.917969 24.851562 C 29.587953 24.262956 29.258203 23.665021 28.931641 23.066406 C 28.60508 22.467799 28.2818 21.868666 27.962891 21.273438 C 27.643984 20.678201 27.330487 20.088232 27.023438 19.509766 C 26.888418 19.255393 26.772766 19.038338 26.640625 18.789062 z "
         transform="matrix(16.131392,0,0,11.470977,-48.394199,566.61979)" />
      <path
         id="path1092"
         style="opacity:1;fill:url(#linearGradient1094);fill-opacity:1;stroke:none;stroke-width:0.371971px;stroke-linecap:butt;stroke-linejoin:miter;stroke-opacity:1"
         d="m 169.20517,804.83078 c 0,0 21.59392,10.01247 46.69018,48.56344 h 34.92913 c -24.4603,-18.27784 -51.58971,-34.82368 -81.61931,-48.56344 z" />
    </g>
  </g>
  <g
     id="g1017"
     transform="matrix(0.06199093,0,0,0.08717653,38,-77.658893)">
    <path
       id="path1009"
       style="fill:#23232d;fill-opacity:1;stroke:none;stroke-width:1.96714;stroke-linecap:round;paint-order:stroke fill markers"
       d="m 296.00984,704.29499 c -1.59747,-0.0494 -3.22109,-0.0202 -4.86843,0.0827 -1.64738,0.10276 -3.31896,0.27985 -5.01314,0.52297 -1.69418,0.24313 -3.41056,0.55272 -5.14853,0.92398 -1.73797,0.37126 -3.49748,0.80349 -5.27616,1.29088 -1.77869,0.48731 -3.57661,1.02983 -5.39295,1.62107 -1.81634,0.59129 -3.65104,1.23148 -5.50199,1.91463 -1.85094,0.68308 -3.71819,1.4091 -5.6007,2.17197 -3.76499,1.52561 -7.58999,3.19828 -11.46286,4.97022 -3.87286,1.772 -7.79391,3.64358 -11.7502,5.56504 -7.91255,3.84291 -15.96723,7.88786 -24.06673,11.7476 -4.04974,1.92987 -8.11054,3.81389 -12.17031,5.60277 -2.02991,0.89442 -4.05963,1.76503 -6.0875,2.60604 -2.02782,0.84103 -4.05392,1.65176 -6.07664,2.42723 -2.02268,0.77549 -4.04193,1.51545 -6.05647,2.21332 -2.01451,0.69784 -4.02426,1.354 -6.02752,1.96215 -2.0033,0.60809 -4.00032,1.16803 -5.9893,1.67431 -1.98903,0.50628 -3.97012,0.95848 -5.94177,1.35083 -1.97162,0.39232 -3.93369,0.72435 -5.88492,0.99063 -1.95122,0.26633 -3.89151,0.46712 -5.81927,0.59531 -1.92775,0.12811 -3.84312,0.18378 -5.74434,0.16174 -1.90124,-0.022 -3.78846,-0.122 -5.66013,-0.30644 -3.74332,-0.36891 -7.23736,-0.64016 -10.5239,-0.80407 -3.28655,-0.16391 -6.3654,-0.2209 -9.27851,-0.16227 -1.45656,0.0292 -2.87208,0.0886 -4.2509,0.17674 -1.37883,0.0882 -2.72133,0.20556 -4.03283,0.35502 -1.31149,0.14936 -2.59169,0.33083 -3.84628,0.54361 -1.25459,0.21289 -2.48315,0.45749 -3.69125,0.73589 -1.2081,0.27847 -2.39572,0.59018 -3.56774,0.93638 -1.17203,0.34621 -2.328868,0.72742 -3.475239,1.14359 -1.146368,0.41624 -2.282108,0.86807 -3.413228,1.35652 -1.13112,0.48842 -2.257483,1.01277 -3.383772,1.57562 -1.1263,0.56282 -2.252917,1.16353 -3.384807,1.80297 -1.131879,0.63947 -2.268966,1.31832 -3.416845,2.03658 -1.147889,0.71826 -2.306613,1.47651 -3.480924,2.27581 -1.174311,0.79936 -2.364354,1.63976 -3.575492,2.52233 -2.422292,1.76514 -4.92865,3.69914 -7.560781,5.81051 -2.632128,2.11133 -5.389954,4.39979 -8.315253,6.87504 -5.850581,4.95046 -12.370676,10.6467 -19.893875,17.15863 -3.7616,3.25593 -7.774109,6.71573 -12.078851,10.38852 C 24.994764,812.78417 20.397449,816.67 15.46624,820.77731 10.650535,824.78838 5.491689,829.02637 0,833.46851 h 435.44732 c 0.0431,0 0.0761,-0.0236 0.10025,-0.0553 -0.43939,-0.44712 -0.87849,-0.87214 -1.31775,-1.32032 -5.32361,-5.43187 -10.63604,-10.94042 -15.90395,-16.46465 -5.26788,-5.52416 -10.49128,-11.06361 -15.63574,-16.55659 -5.1444,-5.49305 -10.20976,-10.93928 -15.1629,-16.27757 -9.90623,-10.67665 -19.36212,-20.92134 -28.09647,-30.23796 -4.36716,-4.65833 -8.55438,-9.08423 -12.52688,-13.21726 -3.97248,-4.13303 -7.7306,-7.97247 -11.24064,-11.45667 -1.75506,-1.74212 -3.44794,-3.39595 -5.07463,-4.95268 -1.62671,-1.55673 -3.18683,-3.01641 -4.67672,-4.37234 -1.4899,-1.35591 -2.90939,-2.60787 -4.254,-3.74756 -1.34464,-1.13964 -2.61461,-2.16731 -3.80545,-3.07528 -0.65111,-0.49647 -1.31061,-0.96573 -1.97818,-1.40817 -0.66757,-0.44246 -1.34305,-0.85749 -2.02676,-1.24748 -0.68363,-0.39 -1.37541,-0.75443 -2.07481,-1.09347 -0.69938,-0.33906 -1.40658,-0.6535 -2.1213,-0.94311 -1.42949,-0.5792 -2.88901,-1.06106 -4.37753,-1.45158 -1.48852,-0.39053 -3.00606,-0.68935 -4.55062,-0.90329 -1.54451,-0.21397 -3.11595,-0.34277 -4.7134,-0.39224 z" />
    <path
       id="path1011"
       style="opacity:1;fill:url(#linearGradient1019);fill-opacity:1;stroke:none;stroke-width:0.999999px;stroke-linecap:butt;stroke-linejoin:miter;stroke-opacity:1"
       d="M 490.17383,3040.4844 C 291.3832,3042.6122 71.650114,3122.0473 0,3150.1172 h 824.57227 c -55.47758,-41.8019 -116.19078,-74.7239 -185.05665,-92.8652 -40.62353,-10.7015 -84.63648,-16.0374 -130.17578,-16.7286 -6.36332,-0.096 -12.7534,-0.1078 -19.16601,-0.039 z"
       transform="scale(0.26458333)" />
    <path
       id="path1013"
       style="opacity:1;fill:url(#linearGradient1021);fill-opacity:1;stroke:none;stroke-width:0.999999px;stroke-linecap:butt;stroke-linejoin:miter;stroke-opacity:1"
       d="m 1484.5449,2979.9297 c -195.1311,92.9472 -355.5639,143.1643 -470.0566,170.1875 h 631.2969 c 0.1629,0 0.2876,-0.089 0.3789,-0.209 -1.6607,-1.6899 -3.3203,-3.2963 -4.9805,-4.9902 -20.1207,-20.5299 -40.1992,-41.3496 -60.1094,-62.2285 -19.9101,-20.8788 -39.6521,-41.8153 -59.0957,-62.5762 -12.7,-13.5607 -25.0234,-26.8383 -37.4336,-40.1836 z"
       transform="scale(0.26458333)" />
    <path
       id="path1015"
       style="opacity:1;fill:url(#linearGradient1023);fill-opacity:1;stroke:none;stroke-width:0.999999px;stroke-linecap:butt;stroke-linejoin:miter;stroke-opacity:1"
       d="m 639.51562,3057.252 c 0,0 81.61482,19.1463 176.4668,92.8652 h 132.01563 c -92.4484,-34.9517 -194.98474,-66.5914 -308.48243,-92.8652 z"
       transform="scale(0.26458333)" />
  </g>
  <g
     id="g32481"
     transform="matrix(0.06199093,0,0,0.08717653,2.9998798,-79.395948)">
    <path
       id="path32473"
       style="fill:#fbfbfb;fill-opacity:1;stroke:none;stroke-width:2.19318;stroke-linecap:round;paint-order:stroke fill markers"
       d="m 296.00984,692.82972 c -1.59747,-0.0614 -3.22109,-0.0251 -4.86843,0.10279 -1.64738,0.12774 -3.31896,0.34786 -5.01314,0.65006 -1.69418,0.30222 -3.41056,0.68704 -5.14853,1.14852 -1.73797,0.46148 -3.49748,0.99875 -5.27616,1.60459 -1.77869,0.60573 -3.57661,1.28009 -5.39295,2.01501 -1.81634,0.73498 -3.65104,1.53075 -5.50199,2.37991 -1.85094,0.84908 -3.71819,1.75153 -5.6007,2.69979 -3.76499,1.89635 -7.58999,3.97551 -11.46286,6.17805 -3.87286,2.20262 -7.79391,4.52902 -11.7502,6.91743 -7.91255,4.77679 -15.96723,9.80472 -24.06673,14.60243 -4.04974,2.39886 -8.11054,4.74072 -12.17031,6.96432 -2.02991,1.11178 -4.05963,2.19396 -6.0875,3.23935 -2.02782,1.04541 -4.05392,2.05316 -6.07664,3.01708 -2.02268,0.96394 -4.04193,1.88372 -6.05647,2.75119 -2.01451,0.86742 -4.02426,1.68304 -6.02752,2.43898 -2.0033,0.75586 -4.00032,1.45187 -5.9893,2.08119 -1.98903,0.62931 -3.97012,1.1914 -5.94177,1.6791 -1.97162,0.48766 -3.93369,0.90038 -5.88492,1.23137 -1.95122,0.33105 -3.89151,0.58063 -5.81927,0.73997 -1.92775,0.15925 -3.84312,0.22845 -5.74434,0.20105 -1.90124,-0.0273 -3.78846,-0.15165 -5.66013,-0.38091 -3.74332,-0.45856 -7.23736,-0.79573 -10.5239,-0.99947 -3.28655,-0.20374 -6.3654,-0.27458 -9.27851,-0.2017 -1.45656,0.0363 -2.87208,0.11013 -4.2509,0.21969 -1.37883,0.10963 -2.72133,0.25551 -4.03283,0.44129 -1.31149,0.18566 -2.59169,0.41123 -3.84628,0.67572 -1.25459,0.26462 -2.48315,0.56866 -3.69125,0.91472 -1.2081,0.34614 -2.39572,0.7336 -3.56774,1.16393 -1.17203,0.43034 -2.328868,0.90419 -3.475239,1.4215 -1.146368,0.51739 -2.282108,1.07902 -3.413228,1.68617 -1.13112,0.60712 -2.257483,1.25889 -3.383772,1.95852 -1.1263,0.69959 -2.252917,1.44629 -3.384807,2.24112 -1.131879,0.79487 -2.268966,1.63869 -3.416845,2.5315 -1.147889,0.8928 -2.306613,1.83532 -3.480924,2.82886 -1.174311,0.99362 -2.364354,2.03824 -3.575492,3.13529 -2.422292,2.1941 -4.92865,4.59809 -7.560781,7.22255 -2.632128,2.62441 -5.389954,5.469 -8.315253,8.54577 -5.850581,6.15349 -12.370676,13.234 -19.893875,21.32842 -3.7616,4.04717 -7.774109,8.34775 -12.078851,12.91308 -4.304739,4.56535 -8.902054,9.39549 -13.833263,14.50094 C 10.650535,842.6047 5.491689,847.87259 0,853.39423 h 435.44732 c 0.0431,0 0.0761,-0.0293 0.10025,-0.0687 -0.43939,-0.55578 -0.87849,-1.08408 -1.31775,-1.64118 -5.32361,-6.75189 -10.63604,-13.59909 -15.90395,-20.46579 -5.26788,-6.86661 -10.49128,-13.75222 -15.63574,-20.58007 -5.1444,-6.82794 -10.20976,-13.59768 -15.1629,-20.23325 -9.90623,-13.27123 -19.36212,-26.00553 -28.09647,-37.58622 -4.36716,-5.79037 -8.55438,-11.29182 -12.52688,-16.42924 -3.97248,-5.13741 -7.7306,-9.90989 -11.24064,-14.2408 -1.75506,-2.16548 -3.44794,-4.22121 -5.07463,-6.15625 -1.62671,-1.93504 -3.18683,-3.74944 -4.67672,-5.43488 -1.4899,-1.68542 -2.90939,-3.24162 -4.254,-4.65827 -1.34464,-1.41659 -2.61461,-2.694 -3.80545,-3.82262 -0.65111,-0.61712 -1.31061,-1.20041 -1.97818,-1.75037 -0.66757,-0.54999 -1.34305,-1.06588 -2.02676,-1.55064 -0.68363,-0.48477 -1.37541,-0.93777 -2.07481,-1.3592 -0.69938,-0.42145 -1.40658,-0.81231 -2.1213,-1.1723 -1.42949,-0.71995 -2.88901,-1.31891 -4.37753,-1.80433 -1.48852,-0.48544 -3.00606,-0.85687 -4.55062,-1.1228 -1.54451,-0.26597 -3.11595,-0.42607 -4.7134,-0.48756 z" />
    <path
       id="path32475"
       style="opacity:1;fill:url(#linearGradient32485);fill-opacity:1;stroke:none;stroke-width:0.371971px;stroke-linecap:butt;stroke-linejoin:miter;stroke-opacity:1"
       d="M 129.69182,796.06225 C 77.095137,797.17496 18.957426,838.71518 0,853.39422 h 218.16808 c -14.67845,-21.86013 -30.74215,-39.07652 -48.96291,-48.56344 -10.74831,-5.59631 -22.3934,-8.38668 -34.44234,-8.74814 -1.68363,-0.0502 -3.37434,-0.0564 -5.07101,-0.0203 z" />
    <path
       id="path32477"
       style="opacity:1;fill:url(#linearGradient32487);fill-opacity:1;stroke:none;stroke-width:0.0259735px;stroke-linecap:butt;stroke-linejoin:miter;stroke-opacity:1"
       d="M 26.640625,18.789062 C 23.769934,22.069955 21.371302,23.974478 19.638672,25 h 10.355469 c 0.0022,0 0.0045,-0.0021 0.0059,-0.0059 -2.8e-4,-4.99e-4 2.8e-4,-0.0015 0,-0.002 -0.02696,-0.04791 -0.05508,-0.09256 -0.08203,-0.140626 -0.330016,-0.588606 -0.659766,-1.186541 -0.986328,-1.785156 -0.326561,-0.598607 -0.649841,-1.19774 -0.96875,-1.792968 -0.318907,-0.595237 -0.632404,-1.185206 -0.939453,-1.763672 -0.13502,-0.254373 -0.250672,-0.471428 -0.382813,-0.720704 z"
       transform="matrix(16.131392,0,0,11.470977,-48.394199,566.61979)" />
    <path
       id="path32479"
       style="opacity:1;fill:url(#linearGradient32489);fill-opacity:1;stroke:none;stroke-width:0.371971px;stroke-linecap:butt;stroke-linejoin:miter;stroke-opacity:1"
       d="m 169.20517,804.83078 c 0,0 21.59392,10.01247 46.69018,48.56344 h 34.92913 c -24.4603,-18.27784 -51.58971,-34.82368 -81.61931,-48.56344 z" />
  </g>
  <g
     id="22-22-start-here-kde">
    <circle
       r="11"
       cy="21"
       cx="49.972176"
       id="path822"
       style="opacity:0;fill:#ffffff;fill-opacity:1;stroke:none;stroke-width:1.24874;stroke-linecap:round;stroke-linejoin:round;stroke-miterlimit:4;stroke-dasharray:none;stroke-opacity:1;paint-order:normal" />
    <g
       id="g32751"
       transform="matrix(0.045919,0,0,0.06457492,40.000001,-27.107864)">
      <path
         id="path32743"
         style="fill:#fbfbfb;fill-opacity:1;stroke:none;stroke-width:2.19318;stroke-linecap:round;paint-order:stroke fill markers"
         d="m 296.00984,692.82972 c -1.59747,-0.0614 -3.22109,-0.0251 -4.86843,0.10279 -1.64738,0.12774 -3.31896,0.34786 -5.01314,0.65006 -1.69418,0.30222 -3.41056,0.68704 -5.14853,1.14852 -1.73797,0.46148 -3.49748,0.99875 -5.27616,1.60459 -1.77869,0.60573 -3.57661,1.28009 -5.39295,2.01501 -1.81634,0.73498 -3.65104,1.53075 -5.50199,2.37991 -1.85094,0.84908 -3.71819,1.75153 -5.6007,2.69979 -3.76499,1.89635 -7.58999,3.97551 -11.46286,6.17805 -3.87286,2.20262 -7.79391,4.52902 -11.7502,6.91743 -7.91255,4.77679 -15.96723,9.80472 -24.06673,14.60243 -4.04974,2.39886 -8.11054,4.74072 -12.17031,6.96432 -2.02991,1.11178 -4.05963,2.19396 -6.0875,3.23935 -2.02782,1.04541 -4.05392,2.05316 -6.07664,3.01708 -2.02268,0.96394 -4.04193,1.88372 -6.05647,2.75119 -2.01451,0.86742 -4.02426,1.68304 -6.02752,2.43898 -2.0033,0.75586 -4.00032,1.45187 -5.9893,2.08119 -1.98903,0.62931 -3.97012,1.1914 -5.94177,1.6791 -1.97162,0.48766 -3.93369,0.90038 -5.88492,1.23137 -1.95122,0.33105 -3.89151,0.58063 -5.81927,0.73997 -1.92775,0.15925 -3.84312,0.22845 -5.74434,0.20105 -1.90124,-0.0273 -3.78846,-0.15165 -5.66013,-0.38091 -3.74332,-0.45856 -7.23736,-0.79573 -10.5239,-0.99947 -3.28655,-0.20374 -6.3654,-0.27458 -9.27851,-0.2017 -1.45656,0.0363 -2.87208,0.11013 -4.2509,0.21969 -1.37883,0.10963 -2.72133,0.25551 -4.03283,0.44129 -1.31149,0.18566 -2.59169,0.41123 -3.84628,0.67572 -1.25459,0.26462 -2.48315,0.56866 -3.69125,0.91472 -1.2081,0.34614 -2.39572,0.7336 -3.56774,1.16393 -1.17203,0.43034 -2.328868,0.90419 -3.475239,1.4215 -1.146368,0.51739 -2.282108,1.07902 -3.413228,1.68617 -1.13112,0.60712 -2.257483,1.25889 -3.383772,1.95852 -1.1263,0.69959 -2.252917,1.44629 -3.384807,2.24112 -1.131879,0.79487 -2.268966,1.63869 -3.416845,2.5315 -1.147889,0.8928 -2.306613,1.83532 -3.480924,2.82886 -1.174311,0.99362 -2.364354,2.03824 -3.575492,3.13529 -2.422292,2.1941 -4.92865,4.59809 -7.560781,7.22255 -2.632128,2.62441 -5.389954,5.469 -8.315253,8.54577 -5.850581,6.15349 -12.370676,13.234 -19.893875,21.32842 -3.7616,4.04717 -7.774109,8.34775 -12.078851,12.91308 -4.304739,4.56535 -8.902054,9.39549 -13.833263,14.50094 C 10.650535,842.6047 5.491689,847.87259 0,853.39423 h 435.44732 c 0.0431,0 0.0761,-0.0293 0.10025,-0.0687 -0.43939,-0.55578 -0.87849,-1.08408 -1.31775,-1.64118 -5.32361,-6.75189 -10.63604,-13.59909 -15.90395,-20.46579 -5.26788,-6.86661 -10.49128,-13.75222 -15.63574,-20.58007 -5.1444,-6.82794 -10.20976,-13.59768 -15.1629,-20.23325 -9.90623,-13.27123 -19.36212,-26.00553 -28.09647,-37.58622 -4.36716,-5.79037 -8.55438,-11.29182 -12.52688,-16.42924 -3.97248,-5.13741 -7.7306,-9.90989 -11.24064,-14.2408 -1.75506,-2.16548 -3.44794,-4.22121 -5.07463,-6.15625 -1.62671,-1.93504 -3.18683,-3.74944 -4.67672,-5.43488 -1.4899,-1.68542 -2.90939,-3.24162 -4.254,-4.65827 -1.34464,-1.41659 -2.61461,-2.694 -3.80545,-3.82262 -0.65111,-0.61712 -1.31061,-1.20041 -1.97818,-1.75037 -0.66757,-0.54999 -1.34305,-1.06588 -2.02676,-1.55064 -0.68363,-0.48477 -1.37541,-0.93777 -2.07481,-1.3592 -0.69938,-0.42145 -1.40658,-0.81231 -2.1213,-1.1723 -1.42949,-0.71995 -2.88901,-1.31891 -4.37753,-1.80433 -1.48852,-0.48544 -3.00606,-0.85687 -4.55062,-1.1228 -1.54451,-0.26597 -3.11595,-0.42607 -4.7134,-0.48756 z" />
      <path
         id="path32745"
         style="opacity:1;fill:url(#linearGradient32753);fill-opacity:1;stroke:none;stroke-width:0.371971px;stroke-linecap:butt;stroke-linejoin:miter;stroke-opacity:1"
         d="M 129.69182,796.06225 C 77.095137,797.17496 18.957426,838.71518 0,853.39422 h 218.16808 c -14.67845,-21.86013 -30.74215,-39.07652 -48.96291,-48.56344 -10.74831,-5.59631 -22.3934,-8.38668 -34.44234,-8.74814 -1.68363,-0.0502 -3.37434,-0.0564 -5.07101,-0.0203 z" />
      <path
         id="path32747"
         style="opacity:1;fill:url(#linearGradient32755);fill-opacity:1;stroke:none;stroke-width:0.0259735px;stroke-linecap:butt;stroke-linejoin:miter;stroke-opacity:1"
         d="M 26.640625,18.789062 C 23.769934,22.069955 21.371302,23.974478 19.638672,25 h 10.355469 c 0.0022,0 0.0045,-0.0021 0.0059,-0.0059 -2.8e-4,-4.99e-4 2.8e-4,-0.0015 0,-0.002 -0.02696,-0.04791 -0.05508,-0.09256 -0.08203,-0.140626 -0.330016,-0.588606 -0.659766,-1.186541 -0.986328,-1.785156 -0.326561,-0.598607 -0.649841,-1.19774 -0.96875,-1.792968 -0.318907,-0.595237 -0.632404,-1.185206 -0.939453,-1.763672 -0.13502,-0.254373 -0.250672,-0.471428 -0.382813,-0.720704 z"
         transform="matrix(16.131392,0,0,11.470977,-48.394199,566.61979)" />
      <path
         id="path32749"
         style="opacity:1;fill:url(#linearGradient32757);fill-opacity:1;stroke:none;stroke-width:0.371971px;stroke-linecap:butt;stroke-linejoin:miter;stroke-opacity:1"
         d="m 169.20517,804.83078 c 0,0 21.59392,10.01247 46.69018,48.56344 h 34.92913 c -24.4603,-18.27784 -51.58971,-34.82368 -81.61931,-48.56344 z" />
    </g>
  </g>
</svg>
