<?xml version="1.0" encoding="UTF-8" standalone="no"?>
<svg
   id="svg4379"
   width="200"
   height="200"
   inkscape:version="1.1.1 (3bf5ae0d25, 2021-09-20, custom)"
   sodipodi:docname="kde.svg"
   version="1.1"
   viewBox="0 0 200 200"
   xmlns:inkscape="http://www.inkscape.org/namespaces/inkscape"
   xmlns:sodipodi="http://sodipodi.sourceforge.net/DTD/sodipodi-0.dtd"
   xmlns:xlink="http://www.w3.org/1999/xlink"
   xmlns="http://www.w3.org/2000/svg"
   xmlns:svg="http://www.w3.org/2000/svg">
  <defs
     id="defs8">
    <linearGradient
       inkscape:collect="always"
       xlink:href="#linearGradient69919"
       id="linearGradient32485"
       gradientUnits="userSpaceOnUse"
       gradientTransform="matrix(0.26458333,0,0,0.52294539,0,150.56374)"
       x1="3.5297737e-05"
       y1="1235.1935"
       x2="931.66602"
       y2="1440" />
    <linearGradient
       inkscape:collect="always"
       id="linearGradient69919">
      <stop
         style="stop-color:#feb36b;stop-opacity:1"
         offset="0"
         id="stop69915" />
      <stop
         style="stop-color:#d66405;stop-opacity:1"
         offset="1"
         id="stop69917" />
    </linearGradient>
    <linearGradient
       inkscape:collect="always"
       xlink:href="#linearGradient89663"
       id="linearGradient32487"
       gradientUnits="userSpaceOnUse"
       gradientTransform="matrix(0.01640177,0,0,0.0411311,-11.801183,-34.228788)"
       x1="1916.9023"
       y1="1440"
       x2="2560"
       y2="1180.5859" />
    <linearGradient
       inkscape:collect="always"
       id="linearGradient89663">
      <stop
         style="stop-color:#0dbbe5;stop-opacity:1"
         offset="0"
         id="stop89659" />
      <stop
         style="stop-color:#4100b8;stop-opacity:1"
         offset="1"
         id="stop89661" />
    </linearGradient>
    <linearGradient
       inkscape:collect="always"
       xlink:href="#linearGradient103557"
       id="linearGradient32489"
       gradientUnits="userSpaceOnUse"
       gradientTransform="matrix(0.26458333,0,0,0.52294539,0,150.56374)"
       x1="639.51562"
       y1="1251.1191"
       x2="1164.2266"
       y2="1440" />
    <linearGradient
       inkscape:collect="always"
       id="linearGradient103557">
      <stop
         style="stop-color:#8505e2;stop-opacity:1"
         offset="0"
         id="stop103553" />
      <stop
         style="stop-color:#10afe2;stop-opacity:1"
         offset="1"
         id="stop103555" />
    </linearGradient>
  </defs>
  <sodipodi:namedview
     id="namedview39"
     bordercolor="#666666"
     borderopacity="1"
     gridtolerance="10"
     guidetolerance="10"
     inkscape:current-layer="svg4379"
     inkscape:cx="91.932205"
     inkscape:cy="98.169494"
     inkscape:pageopacity="0"
     inkscape:pageshadow="2"
     inkscape:window-height="1005"
     inkscape:window-maximized="1"
     inkscape:window-width="1920"
     inkscape:window-x="0"
     inkscape:window-y="0"
     inkscape:zoom="1.84375"
     objecttolerance="10"
     pagecolor="#dfe2e4"
     showgrid="false"
     inkscape:pagecheckerboard="0">
    <inkscape:grid
       id="grid839"
       type="xygrid" />
  </sodipodi:namedview>
  <g
     id="g32481"
     transform="matrix(0.35816822,0,0,0.50368438,22.000117,-289.39741)">
    <path
       id="path32473"
       style="fill:#fbfbfb;fill-opacity:1;stroke:none;stroke-width:0.93153;stroke-linecap:round;paint-order:stroke fill markers"
       d="m -56.181641,41.800781 c -0.572163,-0.03093 -1.154115,-0.01168 -1.74414,0.05273 -0.590039,0.06434 -1.188121,0.173956 -1.794922,0.326172 -0.606802,0.152223 -1.221265,0.347637 -1.84375,0.580078 -0.622486,0.23244 -1.253558,0.501488 -1.890625,0.80664 -0.63707,0.305097 -1.281085,0.645458 -1.931641,1.015625 -0.650555,0.370198 -1.307751,0.77151 -1.970703,1.199219 -0.662948,0.427668 -1.331604,0.881751 -2.005859,1.359375 -1.3485,0.955162 -2.71833,2.001943 -4.105469,3.111328 -1.387135,1.109425 -2.791967,2.28137 -4.208984,3.484375 -2.834024,2.405995 -5.718158,4.938937 -8.619141,7.355469 -1.450488,1.208268 -2.905294,2.38782 -4.359375,3.507812 -0.727049,0.559987 -1.453367,1.104313 -2.179688,1.63086 -0.7263,0.526556 -1.45326,1.03402 -2.177734,1.519531 -0.72446,0.485522 -1.446424,0.949788 -2.167969,1.386719 -0.721533,0.436906 -1.442652,0.84776 -2.160156,1.228515 -0.717523,0.380715 -1.432143,0.73185 -2.144533,1.048828 -0.71241,0.316976 -1.42077,0.600057 -2.12695,0.845704 -0.70617,0.245626 -1.41051,0.452426 -2.10938,0.61914 -0.69886,0.166745 -1.39352,0.29279 -2.08398,0.373047 -0.69046,0.08021 -1.37568,0.115364 -2.05664,0.101563 -0.68096,-0.01375 -1.35697,-0.07593 -2.02734,-0.191407 -1.34076,-0.230969 -2.5924,-0.401285 -3.76954,-0.503906 -1.17713,-0.102621 -2.28081,-0.138271 -3.32422,-0.101562 -0.52169,0.01828 -1.02763,0.05419 -1.52148,0.109375 -0.49385,0.05522 -0.97557,0.129081 -1.44531,0.222656 -0.46974,0.09351 -0.9276,0.206624 -1.37695,0.339844 -0.44938,0.133285 -0.88957,0.286632 -1.32227,0.460937 -0.4327,0.174345 -0.85756,0.37114 -1.27734,0.587891 -0.41979,0.216755 -0.83353,0.454281 -1.24415,0.714844 -0.41059,0.260601 -0.81752,0.543797 -1.22265,0.849609 -0.40513,0.305797 -0.80949,0.633935 -1.21289,0.986328 -0.40341,0.352373 -0.80749,0.728563 -1.21289,1.128906 -0.40541,0.400364 -0.81152,0.825696 -1.22266,1.275391 -0.41114,0.449689 -0.82744,0.923397 -1.24805,1.423828 -0.4206,0.500471 -0.8455,1.027511 -1.27929,1.580078 -0.86759,1.105134 -1.76624,2.314819 -2.70899,3.636719 -0.94274,1.321874 -1.93076,2.754966 -2.97851,4.304687 -2.09549,3.099417 -4.43043,6.667098 -7.125,10.744151 -1.34729,2.03848 -2.78435,4.20442 -4.32617,6.5039 -1.54183,2.29949 -3.18888,4.7312 -4.95508,7.30274 -1.72483,2.51126 -3.57212,5.1661 -5.53906,7.94726 6.78994,-7.39361 27.61271,-28.318455 46.45117,-28.87891 0.60769,-0.01818 1.21338,-0.01357 1.8164,0.01172 4.31555,0.182062 8.48624,1.587476 12.33594,4.40625 10.75565,6.92051 20.473474,15.25468 29.234376,24.46094 h 6.296875 c 10.010706,-5.92521 23.868937,-16.93053 40.455078,-35.886722 -2.70982,-5.111292 -5.412549,-10.220165 -7.853516,-14.771484 -1.564178,-2.916519 -3.063505,-5.687752 -4.486328,-8.27539 -1.422816,-2.587636 -2.768206,-4.992417 -4.025391,-7.173829 -0.628606,-1.090718 -1.23573,-2.12496 -1.818359,-3.099609 -0.582636,-0.974649 -1.140197,-1.889351 -1.673828,-2.738281 -0.533635,-0.84892 -1.043794,-1.632159 -1.525391,-2.345703 -0.481607,-0.713515 -0.934807,-1.357313 -1.361328,-1.925782 -0.233207,-0.310833 -0.469882,-0.603853 -0.708984,-0.880859 -0.239103,-0.277021 -0.48168,-0.537084 -0.726563,-0.78125 -0.244854,-0.244171 -0.491684,-0.473279 -0.742187,-0.685547 -0.250496,-0.212278 -0.503776,-0.408522 -0.759766,-0.589844 -0.511998,-0.362627 -1.035219,-0.665657 -1.568359,-0.910156 -0.533141,-0.244508 -1.077647,-0.430508 -1.63086,-0.564453 -0.553194,-0.133965 -1.115344,-0.215122 -1.6875,-0.246094 z m -45.417969,56.414063 c 0.48022,0.351619 0.94796,0.766992 1.41992,1.160156 -0.90232,-0.814715 -1.41992,-1.160156 -1.41992,-1.160156 z m 78.199219,-7.261719 c 1.774053,3.342233 3.585169,6.750321 5.427735,10.189455 1.842577,3.43908 3.708914,6.90077 5.595703,10.35937 1.886794,3.45865 3.792468,6.91364 5.6992186,10.31446 0.04081,0.0728 0.083504,0.14212 0.125,0.21289 -0.040987,-0.0715 -0.082123,-0.14186 -0.1230468,-0.21485 -1.9067482,-3.40082 -3.8085148,-6.84994 -5.6953128,-10.30859 -1.886787,-3.4586 -3.75898,-6.92811 -5.601562,-10.36719 -1.841865,-3.437821 -3.654318,-6.844526 -5.427735,-10.185545 z"
       transform="matrix(2.7919842,0,0,1.9853703,452.8679,609.83896)" />
    <path
       id="path32475"
       style="opacity:1;fill:url(#linearGradient32485);fill-opacity:1;stroke:none;stroke-width:0.371971px;stroke-linecap:butt;stroke-linejoin:miter;stroke-opacity:1"
       d="M 129.69182,796.06225 C 77.095137,797.17496 18.957426,838.71518 0,853.39422 h 218.16808 c -14.67845,-21.86013 -30.74215,-39.07652 -48.96291,-48.56344 -10.74831,-5.59631 -22.3934,-8.38668 -34.44234,-8.74814 -1.68363,-0.0502 -3.37434,-0.0564 -5.07101,-0.0203 z" />
    <path
       id="path32477"
       style="opacity:1;fill:url(#linearGradient32487);fill-opacity:1;stroke:none;stroke-width:0.0259735px;stroke-linecap:butt;stroke-linejoin:miter;stroke-opacity:1"
       d="M 26.640625,18.789062 C 23.769934,22.069955 21.371302,23.974478 19.638672,25 h 10.355469 c 0.0022,0 0.0045,-0.0021 0.0059,-0.0059 -2.8e-4,-4.99e-4 2.8e-4,-0.0015 0,-0.002 -0.02696,-0.04791 -0.05508,-0.09256 -0.08203,-0.140626 -0.330016,-0.588606 -0.659766,-1.186541 -0.986328,-1.785156 -0.326561,-0.598607 -0.649841,-1.19774 -0.96875,-1.792968 -0.318907,-0.595237 -0.632404,-1.185206 -0.939453,-1.763672 -0.13502,-0.254373 -0.250672,-0.471428 -0.382813,-0.720704 z"
       transform="matrix(16.131392,0,0,11.470977,-48.394199,566.61979)" />
    <path
       id="path32479"
       style="opacity:1;fill:url(#linearGradient32489);fill-opacity:1;stroke:none;stroke-width:0.371971px;stroke-linecap:butt;stroke-linejoin:miter;stroke-opacity:1"
       d="m 169.20517,804.83078 c 0,0 21.59392,10.01247 46.69018,48.56344 h 34.92913 c -24.4603,-18.27784 -51.58971,-34.82368 -81.61931,-48.56344 z" />
  </g>
</svg>
