<?xml version="1.0" encoding="UTF-8" standalone="no"?>
<svg
   width="100"
   height="100"
   version="1"
   id="svg93"
   sodipodi:docname="background.svg.2022_03_18_03_20_19.0.svg"
   inkscape:version="1.1.1 (3bf5ae0d25, 2021-09-20, custom)"
   xmlns:inkscape="http://www.inkscape.org/namespaces/inkscape"
   xmlns:sodipodi="http://sodipodi.sourceforge.net/DTD/sodipodi-0.dtd"
   xmlns:xlink="http://www.w3.org/1999/xlink"
   xmlns="http://www.w3.org/2000/svg"
   xmlns:svg="http://www.w3.org/2000/svg">
  <sodipodi:namedview
     id="namedview95"
     pagecolor="#ffffff"
     bordercolor="#999999"
     borderopacity="1"
     inkscape:pageshadow="0"
     inkscape:pageopacity="0"
     inkscape:pagecheckerboard="0"
     showgrid="true"
     inkscape:snap-bbox="false"
     inkscape:bbox-nodes="true"
     inkscape:snap-intersection-paths="true"
     inkscape:object-paths="true"
     inkscape:zoom="5.2962298"
     inkscape:cx="24.451356"
     inkscape:cy="46.731356"
     inkscape:window-width="1920"
     inkscape:window-height="936"
     inkscape:window-x="0"
     inkscape:window-y="40"
     inkscape:window-maximized="1"
     inkscape:current-layer="svg93"
     inkscape:snap-smooth-nodes="true"
     inkscape:snap-midpoints="true"
     inkscape:snap-nodes="true">
    <inkscape:grid
       type="xygrid"
       id="grid1071" />
  </sodipodi:namedview>
  <defs
     id="defs10">
    <linearGradient
       id="a">
      <stop
         stop-opacity=".5098"
         offset="0"
         id="stop2" />
      <stop
         stop-opacity="0"
         offset="1"
         id="stop4" />
    </linearGradient>
    <linearGradient
       id="d"
       x1="83.327"
       x2="83.327"
       y1="-965.03"
       y2="-952.7"
       gradientTransform="matrix(.71429 0 0 3 -317.71 3175.1)"
       gradientUnits="userSpaceOnUse"
       xlink:href="#a" />
    <radialGradient
       id="g"
       cx="74.93"
       cy="25.07"
       r="1.6471"
       gradientTransform="matrix(-22.464 2.0568e-5 2.0568e-5 22.464 1712.2 -534.17)"
       gradientUnits="userSpaceOnUse"
       xlink:href="#a" />
    <radialGradient
       id="radialGradient963"
       cx="5.3529"
       cy="50.292"
       r="1.6471"
       gradientUnits="userSpaceOnUse"
       xlink:href="#a" />
  </defs>
  <g
     id="shadow-topleft"
     transform="matrix(-1.1176 0 0 1.1176 112.82 -122.93)">
    <g
       transform="matrix(0,4.25,-4.25,0,295.74,106.19)"
       fill="url(#radialGradient963)"
       id="g14">
      <path
         transform="matrix(0 .21053 .21053 0 .89471 45.834)"
         d="m-9-9v38h30a8 8 0 0 1 8-8v-30h-38z"
         color="#000000"
         color-rendering="auto"
         fill="url(#g)"
         image-rendering="auto"
         opacity=".5"
         shape-rendering="auto"
         solid-color="#000000"
         stroke-width="4.75"
         style="isolation:auto;mix-blend-mode:normal"
         id="path12" />
    </g>
  </g>
  <g
     id="shadow-top"
     transform="matrix(0 -1 -.84 0 286.88 309)">
    <rect
       transform="rotate(-90)"
       x="-307"
       y="288"
       width="50"
       height="30"
       fill="url(#d)"
       opacity=".5"
       id="rect17" />
  </g>
  <g
     id="shadow-right"
     transform="matrix(1 0 0 -.84 -209 286.88)">
    <rect
       transform="rotate(-90)"
       x="-307"
       y="288"
       width="50"
       height="30"
       fill="url(#d)"
       opacity=".5"
       id="rect20" />
  </g>
  <g
     id="shadow-left"
     transform="matrix(-1 0 0 -.84 309 286.88)">
    <rect
       transform="rotate(-90)"
       x="-307"
       y="288"
       width="50"
       height="30"
       fill="url(#d)"
       opacity=".5"
       id="rect23" />
  </g>
  <g
     id="shadow-bottom"
     transform="matrix(0 1 -.84 0 286.88 -209)">
    <rect
       transform="rotate(-90)"
       x="-307"
       y="288"
       width="50"
       height="30"
       fill="url(#d)"
       opacity=".5"
       id="rect26" />
  </g>
  <use
     id="shadow-topright"
     transform="rotate(90 50.001 49.999)"
     width="100%"
     height="100%"
     xlink:href="#shadow-topleft" />
  <use
     id="shadow-bottomright"
     transform="rotate(180 50 50)"
     width="100%"
     height="100%"
     xlink:href="#shadow-topleft" />
  <use
     id="shadow-bottomleft"
     transform="rotate(-90,50,50)"
     width="100%"
     height="100%"
     xlink:href="#shadow-topleft" />
  <g
     id="mask-left"
     transform="matrix(0 .84 1.75 0 -452.25 -182.36)"
     fill="#000000">
    <path
       d="m254 347h50l1e-5 4h-50z"
       fill="#000000"
       id="path35" />
  </g>
  <rect
     id="mask-center"
     x="163"
     y="31"
     width="42"
     height="42"
     fill="#000000"
     stroke-width=".84" />
  <g
     id="mask-topright"
     transform="matrix(1.75,0,0,1.75,-326,-584.25)"
     fill="#000000">
    <path
       d="m308 351a4 4 0 0 0-4-4v4z"
       color="#000000"
       color-rendering="auto"
       fill="#000000"
       image-rendering="auto"
       shape-rendering="auto"
       solid-color="#000000"
       style="isolation:auto;mix-blend-mode:normal"
       id="path39" />
  </g>
  <g
     id="mask-top"
     transform="matrix(.84 0 0 1.75 -50.36 -584.25)"
     fill="#000000">
    <path
       d="m254 347h50l1e-5 4h-50z"
       fill="#000000"
       id="path42" />
  </g>
  <g
     id="mask-right"
     transform="matrix(0 .84 -1.75 0 820.25 -182.36)"
     fill="#000000">
    <path
       d="m254 347h50l1e-5 4h-50z"
       fill="#000000"
       id="path45" />
  </g>
  <g
     id="mask-topleft"
     transform="matrix(-1.75,0,0,1.75,694,-584.25)"
     fill="#000000">
    <path
       d="m304 347a4 4 0 0 1 4 4h-4z"
       color="#000000"
       color-rendering="auto"
       fill="#000000"
       image-rendering="auto"
       shape-rendering="auto"
       solid-color="#000000"
       style="isolation:auto;mix-blend-mode:normal"
       id="path48" />
  </g>
  <g
     id="mask-bottom"
     transform="matrix(.84 0 0 -1.75 -50.36 688.25)"
     fill="#000000">
    <path
       d="m254 347h50l1e-5 4h-50z"
       fill="#000000"
       id="path51" />
  </g>
  <g
     id="mask-bottomright"
     transform="matrix(1.75 0 0 -1.75 -231.5 782.75)"
     fill="#000000">
    <path
       d="m250 401a4 4 0 0 1 4 4h-4z"
       color="#000000"
       color-rendering="auto"
       fill="#000000"
       image-rendering="auto"
       shape-rendering="auto"
       solid-color="#000000"
       style="isolation:auto;mix-blend-mode:normal"
       id="path54" />
  </g>
  <g
     id="mask-bottomleft"
     transform="matrix(-1.75,0,0,-1.75,694,782.75)"
     fill="#000000">
    <path
       d="m308 405a4 4 0 0 0-4-4v4z"
       color="#000000"
       color-rendering="auto"
       fill="#000000"
       image-rendering="auto"
       shape-rendering="auto"
       solid-color="#000000"
       style="isolation:auto;mix-blend-mode:normal"
       id="path57" />
  </g>
  <rect
     id="hint-stretch-borders"
     x="7.5"
     y="2.4414e-6"
     width="5"
     height="5"
     color="#000000"
     color-rendering="auto"
     fill="#e4720c"
     image-rendering="auto"
     shape-rendering="auto"
     solid-color="#000000"
     style="isolation:auto;mix-blend-mode:normal" />
  <g
     transform="translate(0,-110.94)"
     fill="#f99133"
     id="g83">
    <rect
       id="shadow-hint-left-margin"
       x="-9"
       y="158.94"
       width="30"
       height="4" />
    <rect
       id="shadow-hint-right-margin"
       x="79"
       y="158.94"
       width="30"
       height="4" />
    <rect
       id="shadow-hint-top-margin"
       x="48"
       y="101.94"
       width="4"
       height="30" />
  </g>
  <rect
     id="shadow-hint-bottom-margin"
     x="48"
     y="79"
     width="4"
     height="30"
     fill="#f99133" />
  <rect
     id="hint-top-margin"
     x="48"
     y="21"
     width="4"
     height="8"
     color="#000000"
     color-rendering="auto"
     fill="#37a4f5"
     image-rendering="auto"
     shape-rendering="auto"
     solid-color="#000000"
     stroke-width="1.4142"
     style="isolation:auto;mix-blend-mode:normal" />
  <path
     id="right"
     style="opacity:1;fill:#23232d;fill-opacity:1;fill-rule:evenodd;stroke-width:0.690199;stroke-linecap:round;stroke-linejoin:round;paint-order:stroke fill markers"
     d="M 71,29.002909 V 70.99705 h 8 c 10e-7,-0.002 0,-0.0039 0,-0.0059 V 29.002909 Z" />
  <rect
     id="hint-right-margin"
     x="71"
     y="48"
     width="8"
     height="4"
     color="#000000"
     color-rendering="auto"
     fill="#37a4f5"
     image-rendering="auto"
     shape-rendering="auto"
     solid-color="#000000"
     stroke-width="1.4142"
     style="isolation:auto;mix-blend-mode:normal" />
  <path
     id="left"
     style="opacity:1;fill:#23232d;fill-opacity:1;fill-rule:evenodd;stroke-width:0.690199;stroke-linecap:round;stroke-linejoin:round;paint-order:stroke fill markers"
     d="M 21,29.002909 V 70.99705 h 8 c 0,-0.002 0,-0.0039 0,-0.0059 V 29.002909 Z" />
  <rect
     id="hint-left-margin"
     x="21"
     y="48"
     width="8"
     height="4"
     color="#000000"
     color-rendering="auto"
     fill="#37a4f5"
     image-rendering="auto"
     shape-rendering="auto"
     solid-color="#000000"
     stroke-width="1.4142"
     style="isolation:auto;mix-blend-mode:normal" />
  <path
     id="bottom"
     style="opacity:1;fill:#23232d;fill-opacity:1;fill-rule:evenodd;stroke-width:0.690199;stroke-linecap:round;stroke-linejoin:round;paint-order:stroke fill markers"
     d="m 28.99507,78.983109 c 0.001,0 0.003,0 0.004,0 H 71.00493 V 70.996781 H 28.99507 Z" />
  <rect
     id="hint-bottom-margin"
     x="48"
     y="71"
     width="4"
     height="7.9999"
     color="#000000"
     color-rendering="auto"
     fill="#37a4f5"
     image-rendering="auto"
     shape-rendering="auto"
     solid-color="#000000"
     stroke-width="1.4142"
     style="isolation:auto;mix-blend-mode:normal" />
  <path
     id="bottomleft"
     style="opacity:1;fill:#23232d;fill-opacity:1;fill-rule:evenodd;stroke-width:0.690199;stroke-linecap:round;stroke-linejoin:round;paint-order:stroke fill markers"
     d="m 28.995115,78.983109 v -7.986328 h -7.99023 c 0.003,4.424402 3.56557,7.98422 7.99023,7.986328 z" />
  <path
     id="bottomright"
     style="opacity:1;fill:#23232d;fill-opacity:1;fill-rule:evenodd;stroke-width:0.690199;stroke-linecap:round;stroke-linejoin:round;paint-order:stroke fill markers"
     d="m 70.999905,70.99705 v 7.986328 h 0.008 c 4.426484,0 7.989017,-3.560615 7.992189,-7.986328 z" />
  <path
     id="center"
     style="opacity:1;fill:#23232d;fill-opacity:1;fill-rule:evenodd;stroke-width:0.632734;stroke-linecap:round;stroke-linejoin:round;paint-order:stroke fill markers"
     d="M 71.01038,29.002909 H 28.98962 v 41.988282 c 0,0.002 0,0.0039 0,0.0059 h 42.02076 z" />
  <path
     id="top"
     style="opacity:1;fill:#23232d;fill-opacity:1;fill-rule:evenodd;stroke-width:0.690199;stroke-linecap:round;stroke-linejoin:round;paint-order:stroke fill markers"
     d="m 29,21.008499 v 8.001953 h 42 v -8.001953 z" />
  <path
     id="topleft"
     style="opacity:1;fill:#23232d;fill-opacity:1;fill-rule:evenodd;stroke-width:0.690199;stroke-linecap:round;stroke-linejoin:round;paint-order:stroke fill markers"
     d="m 21,29.00264 v 0.0078 h 8 V 21.008487 H 28.994 C 24.56569,21.008499 21,24.574185 21,29.00264 Z" />
  <path
     id="topright"
     style="opacity:1;fill:#23232d;fill-opacity:1;fill-rule:evenodd;stroke-width:0.690199;stroke-linecap:round;stroke-linejoin:round;paint-order:stroke fill markers"
     d="m 71,21.000956 v 8.001953 h 8 v -0.0078 c 0,-4.428455 -3.563733,-7.994141 -7.99219,-7.994141 z" />
</svg>
