<?xml version="1.0" encoding="UTF-8" standalone="no"?>
<svg
   id="svg176"
   width="257"
   height="161"
   version="1.0"
   sodipodi:docname="viewitem.svg"
   inkscape:version="1.2.2 (b0a8486541, 2022-12-01)"
   xmlns:inkscape="http://www.inkscape.org/namespaces/inkscape"
   xmlns:sodipodi="http://sodipodi.sourceforge.net/DTD/sodipodi-0.dtd"
   xmlns:xlink="http://www.w3.org/1999/xlink"
   xmlns="http://www.w3.org/2000/svg"
   xmlns:svg="http://www.w3.org/2000/svg"
   xmlns:rdf="http://www.w3.org/1999/02/22-rdf-syntax-ns#"
   xmlns:cc="http://creativecommons.org/ns#"
   xmlns:dc="http://purl.org/dc/elements/1.1/">
  <metadata
     id="metadata122">
    <rdf:RDF>
      <cc:Work
         rdf:about="">
        <dc:format>image/svg+xml</dc:format>
        <dc:type
           rdf:resource="http://purl.org/dc/dcmitype/StillImage" />
        <dc:title />
      </cc:Work>
    </rdf:RDF>
  </metadata>
  <sodipodi:namedview
     pagecolor="#464646"
     bordercolor="#666666"
     borderopacity="1"
     objecttolerance="10"
     gridtolerance="10"
     guidetolerance="10"
     inkscape:pageopacity="0"
     inkscape:pageshadow="2"
     inkscape:window-width="1920"
     inkscape:window-height="1006"
     id="namedview120"
     showgrid="true"
     inkscape:zoom="8.373541"
     inkscape:cx="53.860129"
     inkscape:cy="98.405203"
     inkscape:window-x="0"
     inkscape:window-y="0"
     inkscape:window-maximized="1"
     inkscape:current-layer="svg176"
     inkscape:pagecheckerboard="0"
     inkscape:showpageshadow="0"
     inkscape:deskcolor="#464646">
    <inkscape:grid
       type="xygrid"
       id="grid926" />
  </sodipodi:namedview>
  <defs
     id="defs3">
    <linearGradient
       inkscape:collect="always"
       id="linearGradient1891">
      <stop
         style="stop-color:#faab71;stop-opacity:1"
         offset="0"
         id="stop1887" />
      <stop
         style="stop-color:#fa9752;stop-opacity:0;"
         offset="1"
         id="stop1889" />
    </linearGradient>
    <style
       id="current-color-scheme"
       type="text/css">.ColorScheme-Text {
        color:#7B7C7E;
      }
      .ColorScheme-Background{
        color:#EFF0F1;
      }
      .ColorScheme-Highlight{
        color:#3DAEE6;
      }
      .ColorScheme-ViewText {
        color:#7B7C7E;
      }
      .ColorScheme-ViewBackground{
        color:#FCFCFC;
      }
      .ColorScheme-ViewHover {
        color:#3DAEE6;
      }
      .ColorScheme-ViewFocus{
        color:#1E92FF;
      }
      .ColorScheme-ButtonText {
        color:#7B7C7E;
      }
      .ColorScheme-ButtonBackground{
        color:#EFF0F1;
      }
      .ColorScheme-ButtonHover {
        color:#3DAEE6;
      }
      .ColorScheme-ButtonFocus{
        color:#1E92FF;
      }</style>
    <linearGradient
       inkscape:collect="always"
       xlink:href="#linearGradient1891"
       id="linearGradient1893"
       x1="190.14"
       y1="837.53333"
       x2="238.14"
       y2="837.53333"
       gradientUnits="userSpaceOnUse" />
  </defs>
  <rect
     id="hint-tile-center"
     x="49.93"
     y="-90.32"
     width="40"
     height="40"
     fill="#008000"
     opacity=".875" />
  <path
     id="selected-center"
     class="ColorScheme-Highlight"
     d="m44 19v48h48v-48z"
     color="#3daee6"
     fill="#fff"
     opacity=".25" />
  <g
     id="selected-left"
     transform="matrix(1 0 0 3 -146.14 -2470.6)">
    <path
       id="path7"
       class="ColorScheme-Highlight"
       d="m186.14 829.86v16h4v-16z"
       color="#3daee6"
       fill="#fff"
       opacity=".25" />
  </g>
  <g
     id="selected-topleft"
     transform="translate(-146.14,-810.86)">
    <path
       id="path10"
       class="ColorScheme-Highlight"
       d="m186.14 829.86h4v-4h-1.4688c-1.405 0-2.5312 1.1159-2.5312 2.5312z"
       color="#3daee6"
       fill="#fff"
       opacity=".25" />
  </g>
  <g
     id="selected-top"
     transform="matrix(.36641 0 0 1 -25.688 -810.83)">
    <path
       id="path13"
       class="ColorScheme-Highlight"
       d="m190.19 825.83v4h131v-4z"
       color="#3daee6"
       fill="#fff"
       opacity=".25" />
  </g>
  <g
     id="selected-topright"
     transform="translate(-229.14,-810.86)">
    <path
       id="path16"
       class="ColorScheme-Highlight"
       d="m321.14 825.86v4h4v-1.4688c0-1.405-1.1159-2.5312-2.5312-2.5312z"
       color="#3daee6"
       fill="#fff"
       opacity=".25" />
  </g>
  <g
     id="selected-right"
     transform="matrix(1 0 0 3 -229.14 -2470.6)">
    <path
       id="path19"
       class="ColorScheme-Highlight"
       d="m325.14 829.86v16h-4v-16z"
       color="#3daee6"
       fill="#fff"
       opacity=".25" />
  </g>
  <g
     fill="#333"
     id="g73">
    <path
       id="normal-center"
       d="m149 19v48h48v-48z"
       fill-opacity=".078431"
       opacity=".1" />
    <g
       id="normal-bottom"
       transform="matrix(.36658 0 0 .5 79.277 -355.93)"
       opacity=".1">
      <g
         fill="#333"
         id="g20">
        <path
           id="path23"
           d="m190.13 845.86v4l130.98-0.0625v-3.9375z"
           fill-opacity=".078431"
           opacity=".82273" />
        <path
           id="path25"
           d="m190.14 849.86v1h131v-1z"
           fill-opacity=".15686"
           opacity=".85" />
        <path
           id="path27"
           d="m190.14 848.86v1h131v-1z"
           fill-opacity=".15686" />
      </g>
      <rect
         id="rect29"
         transform="translate(-342.86,-17.143)"
         x="547"
         y="869"
         width="1"
         height="2"
         fill-opacity="0"
         opacity=".521" />
    </g>
    <g
       id="normal-bottomleft"
       transform="matrix(.57143 0 0 .5 40.348 -355.93)"
       opacity=".1">
      <g
         fill="#333"
         id="g27">
        <path
           id="path32"
           d="m188.67 850.86c-1.9482 0-3.5312-1.5884-3.5312-3.5312v-1.4688h1v1.4688c0 1.405 1.1159 2.5312 2.5312 2.5312h1.4688v1z"
           fill-opacity=".15686"
           opacity=".85" />
        <path
           id="path34"
           d="m190.14 849.86v-4h-4v1.4688c0 1.405 1.1159 2.5312 2.5312 2.5312z"
           fill-opacity=".078431"
           opacity=".82273" />
        <path
           id="path36"
           d="m188.74 849.86c-1.6608 0-2.6-1.1986-2.6-2.7v-1.3h1l-0.021 1.2937c-0.0208 1.2806 0.23073 1.7063 1.621 1.7063h1.4v1z"
           fill-opacity=".15686" />
      </g>
      <rect
         id="rect38"
         x="183.14"
         y="851.86"
         width="2"
         height="2.0001"
         fill-opacity="0"
         opacity=".521" />
    </g>
    <g
       id="normal-left"
       transform="matrix(.57143 0 0 3.001 40.348 -2471.4)"
       opacity=".1">
      <g
         fill="#333"
         id="g34">
        <path
           id="path41"
           d="m186.14 829.86v16h4v-16z"
           fill-opacity=".078431"
           opacity=".82273" />
        <path
           id="path43"
           d="m185.14 829.86v16h1v-16z"
           fill-opacity=".15686"
           opacity=".85" />
        <path
           id="path45"
           d="m186.14 829.86v16h1v-16z"
           fill-opacity=".15686" />
      </g>
      <rect
         id="rect47"
         x="183.14"
         y="834.86"
         width="2"
         height="3"
         fill-opacity="0"
         opacity=".521" />
    </g>
    <g
       id="normal-topleft"
       transform="matrix(.57143 0 0 .57143 40.348 -455.21)"
       opacity=".1">
      <g
         fill="#333"
         id="g41">
        <path
           id="path50"
           d="m186.14 829.86h4v-4h-1.4688c-1.405 0-2.5312 1.1159-2.5312 2.5312z"
           fill-opacity=".078431"
           opacity=".82273" />
        <path
           id="path52"
           d="m185.14 828.39c0-1.9482 1.5884-3.5312 3.5312-3.5312h1.4688v1h-1.4688c-1.405 0-2.5312 1.1159-2.5312 2.5312v1.4688h-1z"
           fill-opacity=".15686"
           opacity=".85" />
        <path
           id="path54"
           d="m186.14 829.86h1v-1c0-1.4154 0.59498-2 2-2h1v-1h-1.4688c-1.405 0-2.5312 1.1159-2.5312 2.5312z"
           fill-opacity=".15686" />
      </g>
      <rect
         id="rect56"
         x="183.14"
         y="822.86"
         width="2"
         height="1.9999"
         fill-opacity="0"
         opacity=".521" />
    </g>
    <g
       id="normal-top"
       transform="matrix(.36658 0 0 .57143 79.298 -455.21)"
       opacity=".1">
      <g
         fill="#333"
         id="g48">
        <path
           id="path59"
           d="m190.14 825.86v4h131v-4z"
           fill-opacity=".078431"
           opacity=".82273" />
        <path
           id="path61"
           d="m190.14 824.86v1h131v-1z"
           fill-opacity=".15686"
           opacity=".85" />
        <path
           id="path63"
           d="m190.14 825.86v1h131v-1z"
           fill-opacity=".15686" />
      </g>
      <rect
         id="rect65"
         x="200.14"
         y="822.86"
         width="3"
         height="1.9999"
         fill-opacity="0"
         opacity=".521" />
    </g>
    <g
       id="normal-topright"
       transform="matrix(.57143 0 0 .57143 13.491 -455.21)"
       opacity=".1">
      <g
         fill="#333"
         id="g55">
        <path
           id="path68"
           d="m321.14 825.86v4h4v-1.4688c0-1.405-1.1159-2.5312-2.5312-2.5312z"
           fill-opacity=".078431"
           opacity=".82273" />
        <path
           id="path70"
           d="m322.61 824.86c1.9482 0 3.5312 1.5884 3.5312 3.5312v1.4688h-1v-1.4688c0-1.405-1.1159-2.5312-2.5312-2.5312h-1.4688v-1z"
           fill-opacity=".15686"
           opacity=".85" />
        <path
           id="path72"
           d="m325.14 829.86h-1v-1c0-1.4154-0.59498-2-2-2h-1v-1h1.4688c1.405 0 2.5312 1.1159 2.5312 2.5312z"
           fill-opacity=".15686" />
      </g>
      <rect
         id="rect74"
         x="326.14"
         y="822.86"
         width="2"
         height="1.9999"
         fill-opacity="0"
         opacity=".521" />
    </g>
    <g
       id="normal-right"
       transform="matrix(.57143 0 0 3 13.491 -2470.6)"
       opacity=".1">
      <g
         fill="#333"
         id="g62">
        <path
           id="path77"
           d="m325.14 829.86v16h-4v-16z"
           fill-opacity=".078431"
           opacity=".82273" />
        <path
           id="path79"
           d="m326.14 829.86v16h-1v-16z"
           fill-opacity=".15686"
           opacity=".85" />
        <path
           id="path81"
           d="m325.14 829.86v16h-1v-16z"
           fill-opacity=".15686" />
      </g>
      <rect
         id="rect83"
         x="326.14"
         y="832.86"
         width="2"
         height="3"
         fill-opacity="0"
         opacity=".521" />
    </g>
    <g
       id="normal-bottomright"
       transform="matrix(.57143 0 0 .5 13.491 -355.93)"
       opacity=".1">
      <g
         fill="#333"
         id="g69">
        <path
           id="path86"
           d="m325.14 845.86h-4v4h1.4688c1.405 0 2.5312-1.1159 2.5312-2.5312z"
           fill-opacity=".078431"
           opacity=".82273" />
        <path
           id="path88"
           d="m322.14 849.86c1.5971 0 3-0.57542 3-3v-1h-1v1c0 0.89359-0.31679 2-2 2h-1v1z"
           fill-opacity=".15686" />
        <path
           id="path90"
           d="m326.14 847.33c0 1.9482-1.5884 3.5312-3.5312 3.5312h-1.4688v-1h1.4688c1.405 0 2.5312-1.1159 2.5312-2.5312v-1.4688h1z"
           fill-opacity=".15686"
           opacity=".852" />
      </g>
      <rect
         id="rect92"
         x="326.14"
         y="851.86"
         width="2"
         height="2.0001"
         fill-opacity="0"
         opacity=".521" />
    </g>
  </g>
  <path
     id="hover-center"
     class="ColorScheme-Highlight"
     d="M 44 90 L 44 138 L 92 138 L 92 90 L 44 90 z "
     style="fill-opacity:1;fill:#fafafa;opacity:0.2" />
  <g
     id="hover-left"
     transform="matrix(1,0,0,3,-146.14,-2399.6)"
     style="fill:url(#linearGradient1893);fill-opacity:1">
    <path
       id="path96"
       style="stroke-width:1.73205;fill-opacity:1;fill:#fafafa;opacity:0.2"
       class="ColorScheme-Highlight"
       d="M 40 89.980469 L 40 137.98047 L 44 137.98047 L 44 89.980469 L 40 89.980469 z "
       transform="matrix(1,0,0,0.33333333,146.14,799.86667)" />
  </g>
  <g
     id="hover-topleft"
     transform="translate(-146.14,-739.86)"
     style="fill:#fa9752">
    <path
       id="path101"
       class="ColorScheme-Highlight"
       d="M 42.53125,86 C 41.12625,86 40,87.11595 40,88.53125 V 90 h 4 v -4 z"
       transform="translate(146.14,739.86)"
       style="fill-opacity:1;fill:#fafafa;opacity:0.2" />
  </g>
  <g
     id="hover-top"
     transform="matrix(0.36641,0,0,1,-25.67,-739.86)"
     style="fill:#fa9752">
    <path
       id="path106"
       style="stroke-width:0.605318;fill-opacity:1;fill:#fafafa;opacity:0.2"
       class="ColorScheme-Highlight"
       d="M 44 86 L 44 90 L 91.998047 90 L 91.998047 86 L 44 86 z "
       transform="matrix(2.7291832,0,0,1,70.058132,739.86)" />
  </g>
  <g
     id="hover-topright"
     transform="translate(-229.14,-739.86)"
     style="fill:#fa9752">
    <path
       id="path111"
       class="ColorScheme-Highlight"
       d="M 92 86 L 92 90 L 96 90 L 96 88.53125 C 96 87.12625 94.88405 86 93.46875 86 L 92 86 z "
       transform="translate(229.14,739.86)"
       style="fill-opacity:1;fill:#fafafa;opacity:0.2" />
  </g>
  <g
     id="hover-right"
     transform="matrix(1,0,0,3,-229.14,-2399.6)"
     style="fill:#fa9752">
    <path
       id="path116"
       style="stroke-width:1.73205;fill-opacity:1;fill:#fafafa;opacity:0.2"
       class="ColorScheme-Highlight"
       d="M 92 89.980469 L 92 137.98047 L 96 137.98047 L 96 89.980469 L 92 89.980469 z "
       transform="matrix(1,0,0,0.33333333,229.14,799.86667)" />
  </g>
  <path
     id="selected+hover-center"
     class="ColorScheme-Highlight"
     d="m149 90v48h48v-48z"
     color="#3daee6"
     fill="#fff"
     opacity=".35" />
  <g
     id="selected+hover-left"
     transform="matrix(1 0 0 3 -41.14 -2399.6)">
    <path
       id="path124"
       class="ColorScheme-Highlight"
       d="m186.14 829.86v16h4v-16z"
       color="#3daee6"
       fill="#fff"
       opacity=".35" />
  </g>
  <g
     id="selected+hover-topleft"
     transform="translate(-41.14,-739.86)">
    <path
       id="path127"
       class="ColorScheme-Highlight"
       d="m186.14 829.86h4v-4h-1.4688c-1.405 0-2.5312 1.1159-2.5312 2.5312z"
       color="#3daee6"
       fill="#fff"
       opacity=".35" />
  </g>
  <g
     id="selected+hover-top"
     transform="matrix(.36641 0 0 1 79.33 -739.86)">
    <path
       id="path130"
       class="ColorScheme-Highlight"
       d="m190.14 825.86v4h131v-4z"
       color="#3daee6"
       fill="#fff"
       opacity=".35" />
  </g>
  <g
     id="selected+hover-topright"
     transform="translate(-124.14,-739.84)">
    <path
       id="path133"
       class="ColorScheme-Highlight"
       d="m321.14 825.86v4h4v-1.4688c0-1.405-1.1159-2.5312-2.5312-2.5312z"
       color="#3daee6"
       fill="#fff"
       opacity=".35" />
  </g>
  <g
     id="selected+hover-right"
     transform="matrix(1 0 0 3 -124.14 -2399.6)">
    <path
       id="path136"
       class="ColorScheme-Highlight"
       d="m325.14 829.86v16h-4v-16z"
       color="#3daee6"
       fill="#fff"
       opacity=".35" />
  </g>
  <g
     id="selected-bottomright"
     transform="rotate(180,141.07,448.43)">
    <path
       id="path139"
       class="ColorScheme-Highlight"
       d="m186.14 829.86h4v-4h-1.4688c-1.405 0-2.5312 1.1159-2.5312 2.5312z"
       color="#3daee6"
       fill="#fff"
       opacity=".25" />
  </g>
  <g
     id="selected-bottom"
     transform="matrix(-.36641 0 0 -1 161.67 896.86)">
    <path
       id="path142"
       class="ColorScheme-Highlight"
       d="m190.14 825.86v4h131v-4z"
       color="#3daee6"
       fill="#fff"
       opacity=".25" />
  </g>
  <g
     id="selected-bottomleft"
     transform="rotate(180,182.57,448.43)">
    <path
       id="path145"
       class="ColorScheme-Highlight"
       d="m321.14 825.86v4h4v-1.4688c0-1.405-1.1159-2.5312-2.5312-2.5312z"
       color="#3daee6"
       fill="#fff"
       opacity=".25" />
  </g>
  <g
     fill="#fa9752"
     id="g111">
    <g
       id="hover-bottomright"
       transform="rotate(180,141.07,483.93)">
      <path
         id="path148"
         class="ColorScheme-Highlight"
         d="M 92 138 L 92 142 L 93.46875 142 C 94.87375 142 96 140.88405 96 139.46875 L 96 138 L 92 138 z "
         transform="rotate(-180,141.07,483.93)"
         style="fill-opacity:1;fill:#fafafa;opacity:0.2" />
    </g>
    <g
       id="hover-bottom"
       transform="matrix(-.36641 0 0 -1 161.67 967.86)">
      <path
         id="path153"
         style="stroke-width:0.605318;fill-opacity:1;fill:#fafafa;opacity:0.2"
         class="ColorScheme-Highlight"
         d="M 44.001953 138 L 44.001953 142 L 92 142 L 92 138 L 44.001953 138 z "
         transform="matrix(-2.7291832,0,0,-1,441.22704,967.86)" />
    </g>
    <g
       id="hover-bottomleft"
       transform="rotate(180 182.57 483.93)">
      <path
         id="path158"
         class="ColorScheme-Highlight"
         d="M 40 138 L 40 139.46875 C 40 140.87375 41.11595 142 42.53125 142 L 44 142 L 44 138 L 40 138 z "
         transform="rotate(-180,182.57,483.93)"
         style="fill-opacity:1;fill:#fafafa;opacity:0.2" />
    </g>
  </g>
  <g
     id="selected+hover-bottomright"
     transform="rotate(180,193.57,483.93)">
    <path
       id="path165"
       class="ColorScheme-Highlight"
       d="m186.14 829.86h4v-4h-1.4688c-1.405 0-2.5312 1.1159-2.5312 2.5312z"
       color="#3daee6"
       fill="#fff"
       opacity=".35" />
  </g>
  <g
     id="selected+hover-bottom"
     transform="matrix(-.36641 0 0 -1 266.67 967.86)">
    <path
       id="path168"
       class="ColorScheme-Highlight"
       d="m190.14 825.86v4h131v-4z"
       color="#3daee6"
       fill="#fff"
       opacity=".35" />
  </g>
  <g
     id="selected+hover-bottomleft"
     transform="rotate(180,235.07,483.93)">
    <path
       id="path171"
       class="ColorScheme-Highlight"
       d="m321.14 825.86v4h4v-1.4688c0-1.405-1.1159-2.5312-2.5312-2.5312z"
       color="#3daee6"
       fill="#fff"
       opacity=".35" />
  </g>
</svg>
